<svg data-v-1084b650="" xmlns="http://www.w3.org/2000/svg" viewBox="0 0 300 300"><!----> <!---->
    <rect data-v-1084b650="" fill="none" x="0" y="0" width="300px" height="300px"
          class="logo-background-square"></rect> <!---->
    <linearGradient data-v-1084b650="" gradientTransform="rotate(25)" id="5bb1fa30-38b4-2c27-8a02-7d1ba747a3d2" x1="0%"
                    y1="0%" x2="100%" y2="0%">
        <stop data-v-1084b650="" offset="0%" style="stop-color: rgb(81, 164, 251); stop-opacity: 1;"></stop>
        <stop data-v-1084b650="" offset="100%" style="stop-color: rgb(81, 164, 251); stop-opacity: 1;"></stop>
    </linearGradient>
    <g data-v-1084b650="" id="1c489307-b92a-57c7-7953-054f0fcc9f1e" fill="url(#5bb1fa30-38b4-2c27-8a02-7d1ba747a3d2)"
       stroke="url(#5bb1fa30-38b4-2c27-8a02-7d1ba747a3d2)"
       transform="matrix(0.75,0,0,0.75,36.76456832885742,37.92523956298828)">
        <svg xmlns="http://www.w3.org/2000/svg" viewBox="-1.999 -1.144 100 100">
            <path d="M.016 46.002s-2.389 50.207 50.717 51.332L50.06 84.94s-35.04.881-37.567-38.024L.016 46.002z"></path>
            <path stroke-width="3" stroke-miterlimit="10"
                  d="M22.228 49.422s-1.182 24.794 25.044 25.351l-.351-8.045c-17.484-.37-16.697-16.899-16.697-16.899l-7.996-.407z"></path>
            <path d="M51.862 57.669L38.745 44.551l7.711-10.994 27.065-18.806 8.258 8.256-18.808 27.067zM70.854 63.475l-4.105 5.366 24.771 12.69 2.567-2.569 2.569-2.566-12.688-24.772-5.371 4.106-7.251-5.415-2.954 2.952-2.953 2.952zM15.123 5.135l12.689 24.769 5.368-4.103 7.255 5.414 2.951-2.951 2.952-2.953-5.414-7.255 4.104-5.367L20.258 0l-2.566 2.569z"></path>
        </svg>
    </g>
</svg>
