<svg data-v-1084b650="" xmlns="http://www.w3.org/2000/svg" viewBox="0 0 300 300"><!----> <!----> <rect data-v-1084b650="" fill="#E6F2FE" x="0" y="0" width="300px" height="300px" class="logo-background-square"></rect> <!----> <g data-v-1084b650="" id="e4d4837b-4cd9-9ab1-aee6-507d7ffac880" fill="#193655" transform="matrix(3.700000047683716,0,0,3.700000047683716,122.86032104492188,98.9214859008789)"><path d="M3.50 7.48L3.50 7.48Q3.91 7.48 4.12 7.59L4.12 7.59L4.12 7.59Q4.33 7.70 4.33 7.88L4.33 7.88L4.33 7.88Q4.59 7.84 4.79 7.83L4.79 7.83L4.79 7.83Q5.00 7.81 5.25 7.81L5.25 7.81L5.25 7.81Q6.26 7.81 6.95 8.30L6.95 8.30L6.95 8.30Q7.64 8.79 7.99 9.59L7.99 9.59L7.99 9.59Q8.33 10.39 8.33 11.31L8.33 11.31L8.33 11.31Q8.33 11.55 8.32 11.66L8.32 11.66L8.32 11.66Q8.19 13.34 7.48 14.62L7.48 14.62L7.48 14.62Q6.76 15.90 5.59 16.60L5.59 16.60L5.59 16.60Q4.42 17.30 2.97 17.30L2.97 17.30L2.97 17.30Q2.56 17.30 1.97 17.21L1.97 17.21L1.97 17.21Q1.75 17.16 1.45 16.91L1.45 16.91L1.45 16.91Q1.15 16.65 0.94 16.31L0.94 16.31L0.94 16.31Q0.73 15.97 0.73 15.71L0.73 15.71L0.73 15.71Q0.73 15.55 0.77 15.41L0.77 15.41L2.24 9.74L2.24 9.74Q1.44 9.98 0.90 10.36L0.90 10.36L0.90 10.36Q0.73 10.19 0.64 9.94L0.64 9.94L0.64 9.94Q0.56 9.69 0.56 9.42L0.56 9.42L0.56 9.42Q0.56 9.11 0.81 8.88L0.81 8.88L0.81 8.88Q1.47 8.46 2.63 8.16L2.63 8.16L2.63 8.16Q2.90 7.48 3.50 7.48L3.50 7.48ZM2.52 15.75L2.52 15.75Q2.86 15.83 3.25 15.83L3.25 15.83L3.25 15.83Q4.23 15.83 4.93 15.30L4.93 15.30L4.93 15.30Q5.63 14.76 6.03 13.93L6.03 13.93L6.03 13.93Q6.43 13.10 6.55 12.22L6.55 12.22L6.55 12.22Q6.61 11.87 6.61 11.44L6.61 11.44L6.61 11.44Q6.61 10.46 6.17 9.89L6.17 9.89L6.17 9.89Q5.74 9.32 4.83 9.32L4.83 9.32L4.83 9.32Q4.44 9.32 4.12 9.38L4.12 9.38L4.12 9.38Q3.86 10.47 3.05 13.65L3.05 13.65L3.05 13.65Q2.62 15.36 2.52 15.75L2.52 15.75ZM10.28 16.55L10.28 16.55Q10.26 16.63 10.21 16.88L10.21 16.88L10.21 16.88Q10.16 17.12 9.97 17.22L9.97 17.22L9.97 17.22Q9.79 17.32 9.38 17.32L9.38 17.32L9.38 17.32Q8.92 17.32 8.71 17.22L8.71 17.22L8.71 17.22Q8.50 17.12 8.50 16.80L8.50 16.80L9.17 14.13L9.17 14.13Q9.73 11.82 9.91 11.19L9.91 11.19L9.56 10.77L9.56 10.77Q9.52 10.72 9.52 10.67L9.52 10.67L9.52 10.67Q9.52 10.53 9.83 10.44L9.83 10.44L9.83 10.44Q10.14 10.35 10.68 10.35L10.68 10.35L10.68 10.35Q11.17 10.35 11.34 10.62L11.34 10.62L11.34 10.62Q11.51 10.89 11.55 11.33L11.55 11.33L11.45 11.69L11.45 11.69Q11.90 11.14 12.50 10.79L12.50 10.79L12.50 10.79Q13.09 10.43 13.55 10.43L13.55 10.43L13.55 10.43Q14.15 10.43 14.49 10.64L14.49 10.64L14.49 10.64Q14.83 10.85 14.83 11.19L14.83 11.19L14.83 11.19Q14.83 11.48 14.62 11.80L14.62 11.80L14.62 11.80Q14.42 12.11 14.11 12.33L14.11 12.33L14.11 12.33Q13.80 12.54 13.51 12.57L13.51 12.57L13.51 12.57Q13.23 12.57 13.13 12.50L13.13 12.50L13.13 12.50Q13.03 12.43 13.03 12.29L13.03 12.29L13.12 11.83L13.12 11.83Q12.00 12.14 11.09 13.31L11.09 13.31L10.28 16.55ZM17.08 17.37L17.08 17.37Q15.85 17.37 15.16 16.53L15.16 16.53L15.16 16.53Q14.48 15.69 14.48 14.39L14.48 14.39L14.48 14.39Q14.48 13.30 15.00 12.33L15.00 12.33L15.00 12.33Q15.53 11.37 16.44 10.78L16.44 10.78L16.44 10.78Q17.35 10.19 18.44 10.19L18.44 10.19L18.44 10.19Q19.52 10.19 20.21 10.90L20.21 10.90L20.21 10.90Q20.90 11.61 20.90 12.98L20.90 12.98L20.90 12.98Q20.90 13.94 20.37 14.98L20.37 14.98L20.37 14.98Q19.84 16.02 18.95 16.70L18.95 16.70L18.95 16.70Q18.06 17.37 17.08 17.37L17.08 17.37ZM17.29 16.25L17.29 16.25Q17.74 16.25 18.19 15.69L18.19 15.69L18.19 15.69Q18.65 15.13 18.94 14.28L18.94 14.28L18.94 14.28Q19.24 13.43 19.24 12.61L19.24 12.61L19.24 12.61Q19.24 11.37 18.20 11.37L18.20 11.37L18.20 11.37Q17.63 11.37 17.15 11.91L17.15 11.91L17.15 11.91Q16.67 12.46 16.39 13.27L16.39 13.27L16.39 13.27Q16.11 14.07 16.11 14.77L16.11 14.77L16.11 14.77Q16.11 15.18 16.30 15.52L16.30 15.52L16.30 15.52Q16.48 15.86 16.75 16.06L16.75 16.06L16.75 16.06Q17.02 16.25 17.29 16.25L17.29 16.25ZM23.06 16.46L23.06 16.46Q23.04 16.55 22.69 18.00L22.69 18.00L22.69 18.00Q22.33 19.45 22.19 19.82L22.19 19.82L22.19 19.82Q22.13 19.98 21.85 20.06L21.85 20.06L21.85 20.06Q21.57 20.13 21.45 20.13L21.45 20.13L21.45 20.13Q21.14 20.13 20.94 19.94L20.94 19.94L20.94 19.94Q20.73 19.74 20.72 19.35L20.72 19.35L21.70 15.33L21.70 15.33Q22.26 13.13 22.62 11.58L22.62 11.58L22.62 11.58Q22.62 11.49 22.53 11.13L22.53 11.13L22.53 11.13Q22.48 10.91 22.44 10.71L22.44 10.71L22.44 10.71Q22.40 10.51 22.39 10.42L22.39 10.42L22.39 10.42Q22.41 10.23 22.67 10.12L22.67 10.12L22.67 10.12Q22.93 10.01 23.16 10.01L23.16 10.01L23.16 10.01Q23.49 10.01 23.82 10.25L23.82 10.25L23.82 10.25Q24.15 10.49 24.19 10.82L24.19 10.82L24.15 11.19L24.15 11.19Q24.78 10.40 25.76 10.40L25.76 10.40L25.76 10.40Q26.56 10.40 27.14 10.79L27.14 10.79L27.14 10.79Q27.72 11.17 28.03 11.82L28.03 11.82L28.03 11.82Q28.34 12.47 28.34 13.26L28.34 13.26L28.34 13.26Q28.34 14.31 27.93 15.23L27.93 15.23L27.93 15.23Q27.52 16.16 26.71 16.72L26.71 16.72L26.71 16.72Q25.90 17.29 24.75 17.29L24.75 17.29L24.75 17.29Q24.39 17.29 23.81 17.05L23.81 17.05L23.81 17.05Q23.24 16.80 23.06 16.46L23.06 16.46ZM23.49 14.69L23.49 14.69Q23.46 14.85 23.46 14.92L23.46 14.92L23.46 14.92Q23.48 15.27 23.70 15.54L23.70 15.54L23.70 15.54Q23.91 15.81 24.21 15.95L24.21 15.95L24.21 15.95Q24.50 16.10 24.70 16.10L24.70 16.10L24.70 16.10Q25.31 16.10 25.78 15.63L25.78 15.63L25.78 15.63Q26.25 15.16 26.50 14.47L26.50 14.47L26.50 14.47Q26.75 13.78 26.75 13.15L26.75 13.15L26.75 13.15Q26.75 12.56 26.44 12.10L26.44 12.10L26.44 12.10Q26.12 11.65 25.65 11.65L25.65 11.65L25.65 11.65Q25.12 11.65 24.77 11.88L24.77 11.88L24.77 11.88Q24.43 12.11 24.00 12.59L24.00 12.59L23.49 14.69ZM30.31 9.83L30.31 9.83Q30.03 9.73 29.88 9.53L29.88 9.53L29.88 9.53Q29.74 9.32 29.74 9.04L29.74 9.04L29.74 9.04Q29.74 8.64 30.28 8.40L30.28 8.40L30.28 8.40Q32.28 7.99 34.31 7.83L34.31 7.83L34.31 7.83Q34.86 8.06 34.86 8.47L34.86 8.47L34.86 8.47Q34.86 8.72 34.61 8.96L34.61 8.96L34.61 8.96Q34.36 9.20 34.03 9.30L34.03 9.30L33.26 9.39L33.26 9.39Q33.03 10.44 32.17 13.92L32.17 13.92L31.78 15.48L32.86 15.37L32.86 15.37Q33.40 15.61 33.40 16.02L33.40 16.02L33.40 16.02Q33.40 16.27 33.15 16.51L33.15 16.51L33.15 16.51Q32.90 16.74 32.58 16.84L32.58 16.84L32.02 16.91L32.02 16.91Q29.96 17.14 28.85 17.37L28.85 17.37L28.85 17.37Q28.57 17.28 28.43 17.07L28.43 17.07L28.43 17.07Q28.28 16.87 28.28 16.59L28.28 16.59L28.28 16.59Q28.28 16.18 28.83 15.95L28.83 15.95L28.83 15.95Q29.53 15.81 29.89 15.75L29.89 15.75L31.43 9.63L31.43 9.63Q30.86 9.72 30.31 9.83L30.31 9.83ZM37.38 12.01L36.50 15.54L36.50 15.54Q36.50 15.86 36.67 16.05L36.67 16.05L36.67 16.05Q36.83 16.24 37.14 16.24L37.14 16.24L37.14 16.24Q37.56 16.24 37.83 16.00L37.83 16.00L37.83 16.00Q38.11 15.75 38.42 15.30L38.42 15.30L38.42 15.30Q38.64 14.98 38.78 14.84L38.78 14.84L38.78 14.84Q38.92 14.70 39.10 14.70L39.10 14.70L39.10 14.70Q39.47 14.70 39.62 14.79L39.62 14.79L39.62 14.79Q39.77 14.88 39.77 15.16L39.77 15.16L39.77 15.16Q39.77 15.29 39.75 15.46L39.75 15.46L39.75 15.46Q39.72 15.64 39.68 15.72L39.68 15.72L39.68 15.72Q39.34 16.44 38.58 16.95L38.58 16.95L38.58 16.95Q37.81 17.47 36.85 17.47L36.85 17.47L36.85 17.47Q35.88 17.47 35.39 17.00L35.39 17.00L35.39 17.00Q34.90 16.53 34.90 15.67L34.90 15.67L34.90 15.67Q34.90 15.54 35.03 15.01L35.03 15.01L35.03 15.01Q35.15 14.48 35.35 13.73L35.35 13.73L35.74 12.14L34.89 12.21L34.89 12.21Q34.72 12.21 34.64 12.08L34.64 12.08L34.64 12.08Q34.55 11.96 34.55 11.77L34.55 11.77L34.55 11.77Q34.55 11.42 34.80 11.07L34.80 11.07L34.80 11.07Q34.83 11.03 35.08 10.99L35.08 10.99L35.08 10.99Q35.34 10.95 35.70 10.91L35.70 10.91L36.08 10.86L36.55 8.82L36.55 8.82Q36.69 8.46 36.98 8.25L36.98 8.25L36.98 8.25Q37.27 8.05 37.52 8.05L37.52 8.05L37.52 8.05Q37.80 8.05 38.00 8.22L38.00 8.22L38.00 8.22Q38.19 8.39 38.21 8.61L38.21 8.61L37.70 10.71L37.70 10.71Q38.25 10.64 38.72 10.59L38.72 10.59L38.72 10.59Q39.19 10.54 39.45 10.54L39.45 10.54L39.45 10.54Q39.98 10.54 39.98 11.16L39.98 11.16L39.98 11.16Q39.98 11.40 39.78 11.59L39.78 11.59L39.78 11.59Q39.58 11.77 39.34 11.82L39.34 11.82L37.38 12.01Z"></path></g> <linearGradient data-v-1084b650="" gradientTransform="rotate(25)" id="37eb863e-c1e1-1b04-7972-8bcc29497557" x1="0%" y1="0%" x2="100%" y2="0%"><stop data-v-1084b650="" offset="0%" style="stop-color: rgb(81, 164, 251); stop-opacity: 1;"></stop> <stop data-v-1084b650="" offset="100%" style="stop-color: rgb(81, 164, 251); stop-opacity: 1;"></stop></linearGradient> <g data-v-1084b650="" id="3b665d47-8413-f15c-b50a-f4acac37388a" fill="none" stroke="url(#37eb863e-c1e1-1b04-7972-8bcc29497557)" transform="matrix(0.24043497443199158,0,0,0.24043497443199158,39.53888702392578,114.07107543945312)"><svg xmlns="http://www.w3.org/2000/svg" viewBox="-1.999 -1.144 100 100"><path d="M.016 46.002s-2.389 50.207 50.717 51.332L50.06 84.94s-35.04.881-37.567-38.024L.016 46.002z"></path><path stroke-width="3" stroke-miterlimit="10" d="M22.228 49.422s-1.182 24.794 25.044 25.351l-.351-8.045c-17.484-.37-16.697-16.899-16.697-16.899l-7.996-.407z"></path><path d="M51.862 57.669L38.745 44.551l7.711-10.994 27.065-18.806 8.258 8.256-18.808 27.067zM70.854 63.475l-4.105 5.366 24.771 12.69 2.567-2.569 2.569-2.566-12.688-24.772-5.371 4.106-7.251-5.415-2.954 2.952-2.953 2.952zM15.123 5.135l12.689 24.769 5.368-4.103 7.255 5.414 2.951-2.951 2.952-2.953-5.414-7.255 4.104-5.367L20.258 0l-2.566 2.569z"></path></svg></g></svg>